<svg xmlns="http://www.w3.org/2000/svg" height="800" width="1200" viewBox="-30.00024 -17.948125 260.00208 107.68875"><path fill="#d03027" d="M135.7362 51.9216c-.0112.0112-.0225.0112-.0225.0225-8.5201 6.0294-18.6068 12.3632-29.4598 19.0125l-.4283.248c-.1465.1014-.1803.3042-.0788.4507.1014.1465.3042.1803.4508.079l.3606-.1917c9.2076-4.801 19.7788-10.5036 30.4177-16.3527.0564-.0339.1127-.0677.169-.0902-.586-.9692-1.0706-2.0286-1.4087-3.1781zm55.8992-45.2491C178.213-8.1363 91.8283 5.1849 55.0994 13.2091l-.8565.1803c-.1804.0338-.293.2029-.2593.372.0339.1803.2029.293.372.2591l.8452-.169c30.429-5.4209 93.7213-12.9267 107.3355.5748 4.1586 4.1248 3.1669 9.4217-1.6567 15.6878 2.592 1.668 4.4404 4.2939 5.2744 7.5734 18.8209-12.4871 31.4545-24.422 25.4814-31.015z"/><g fill="#004977"><path d="M141.1684 48.0334c.169 5.2067 3.4711 9.478 7.765 9.478 8.3285 0 11.8786-10.233 11.6306-17.0627-.1803-5.218-3.5613-9.478-7.8552-9.478-7.1564-.0113-11.7884 10.1767-11.5404 17.0627zm-4.3953-.2817c-.3043-8.892 6.6605-17.987 16.781-17.987 6.762 0 11.1911 4.508 11.439 11.4165.3269 9.3767-6.1872 17.987-16.7697 17.987-6.7846 0-11.2137-4.4968-11.4503-11.4165zM40.925 45.4075c-.3605.1352-.8226.2705-1.4087.3944-.5747.1353-1.6341.3156-3.1668.5635-1.0594.169-1.792.3832-2.209.6875-.3944.293-.631.6424-.6987 1.082-.0789.462.0676.8226.462 1.1157.4058.2817 1.082.4282 2.04.4282.7212 0 1.42-.1127 2.0962-.338.6874-.2255 1.2735-.5298 1.713-.913.3268-.2817.5635-.6423.7438-1.0819.1127-.293.2592-.9354.4283-1.9384zm8.7907-5.466c-.0338.8115-.1803 1.5328-.3945 2.7837l-1.4876 8.3511c-.124.7438.1465 1.3186.834 1.7243l-.0451.3268-8.5201-.0112-.079-2.1188c-1.2396.7438-2.7385 1.375-4.091 1.7469-1.3523.3493-2.4455.4958-4.0797.4958-2.7498 0-4.3276-.2817-5.4208-1.2397-1.1045-.9804-1.6454-1.6341-1.5891-2.9865.045-.7776.4508-1.7807 1.0256-2.4794.586-.71 1.3975-1.172 2.2652-1.589.8791-.417 1.916-.7214 3.4149-.958 1.5101-.248 3.6064-.4846 6.4126-.7213 1.4764-.124 2.378-.462 2.795-.6311.586-.2254.8227-.4846.9015-.958.1578-.8565-.1127-1.3524-1.2622-1.5778-3.0654-.6086-8.8244.3945-11.7884 1.127l1.6116-4.3502c3.9107-.5748 7.5734-.9354 11.439-.9354 6.1647 0 8.1257 1.7468 8.058 4.0008zm24.7038 13.1747l2.9528-16.6909h8.1595L82.579 53.1162zm3.4036-20.5565c.248-1.375 2.4118-2.4794 4.8235-2.4794 2.423 0 4.1925 1.1157 3.9558 2.4794-.2592 1.375-2.4118 2.4907-4.8461 2.4907-2.4118 0-4.1699-1.1158-3.9332-2.4907zm36.6804 12.8816c-.3719.124-.8452.2592-1.42.3945-.5747.1352-1.6341.3042-3.1668.5522-1.0482.169-1.792.3832-2.1977.6875-.3944.2817-.6198.6423-.71 1.0706-.0902.462.0789.834.462 1.1157.417.2818 1.0933.417 2.0512.417.71 0 1.4088-.1014 2.0962-.3155.6988-.2367 1.2735-.5297 1.7243-.913.3156-.2817.5523-.6536.7213-1.0818.1127-.2818.2592-.9242.4395-1.9272zm8.7906-5.4772c-.0338.8227-.1803 1.544-.4057 2.7837l-1.4763 8.3623c-.124.7326.1465 1.3186.834 1.7243l-.0451.293-8.5202.0113-.0676-2.13c-1.2397.755-2.7499 1.3862-4.091 1.7468-1.3524.3607-2.4456.5072-4.1023.5072-2.7499 0-4.3164-.2705-5.4096-1.2397-1.1157-.9918-1.6454-1.6342-1.589-2.9866.0338-.7889.4395-1.7919 1.0255-2.4794.586-.7212 1.3975-1.172 2.2766-1.589.879-.417 1.9159-.7213 3.4035-.9693 1.5102-.2366 3.6177-.4846 6.4239-.7212 1.4651-.124 2.3667-.4508 2.7837-.6199.5973-.2254.8227-.4846.9129-.9692.1465-.8453-.1127-1.3411-1.251-1.5778-3.088-.6086-8.8244.3944-11.7884 1.127l1.6003-4.3502c3.922-.5748 7.5735-.9354 11.439-.9354 6.1422.0112 8.1032 1.7694 8.0468 4.012zm-99.5558 7.1564c-2.6597.5297-4.1473.7326-6.7732.7326-3.8994 0-6.9987-1.9385-6.8296-5.4885.124-2.3667 2.9189-7.348 10.0303-7.348 2.2427 0 3.9895.3944 6.345 1.7355l1.0368-5.7927c-3.2007-1.206-5.3194-1.3863-8.0693-1.3637-9.3316.1014-18.28 4.339-19.3957 12.9605-1.127 8.7568 9.5682 10.9544 14.313 10.9319 2.7385-.0113 5.5898-.124 8.2496-.3945zm66.2902-10.7854l.586-3.4035 8.5314-1.8595-.9129 5.2518h4.1812l-.7889 3.3584-4.0572-.0112L95.1 53.0936s-8.2158-.0563-8.2497 0l2.4569-13.3887h-3.088l.6311-3.381h3.1782zm33.2468 16.7806l4.1812-23.2838 8.0919.2254-3.967 23.0471zM63.6229 40.336c-1.0707 0-2.0399.3268-2.8964.9692-.8565.6537-1.3975 1.6004-1.6116 2.8513-.2592 1.4539-.1015 2.502.4733 3.1444.586.6423 1.42.9692 2.5245.9692.7438 0 1.5102-.1353 2.0737-.417.6987-.372 1.1833-.7551 1.6003-1.375.4508-.6423.7438-1.3636.9016-2.1976.2367-1.3186.0338-2.299-.5748-2.9527-.5973-.6537-1.42-.9918-2.4906-.9918zM48.769 58.875l3.9783-22.3596h7.1677l-.5522 2.8513c.6199-.8565 1.6116-1.5553 2.9866-2.1188 1.3862-.5635 2.9414-.9805 4.632-.9805 1.8708 0 3.0203.1015 4.4178.8227 1.3862.7326 2.3667 1.792 2.885 3.1669.541 1.3524.6538 2.8851.3607 4.5418-.4846 2.7612-1.8257 4.925-4.0346 6.5253-2.1864 1.6004-4.1587 2.0174-6.9649 2.0286-.9917 0-1.8257-.1014-2.5132-.2704-.6762-.1804-1.2172-.3945-1.6229-.6537-.3944-.2592-.8114-.6311-1.3411-1.2172l-1.3299 7.6636zm148.107-16.4879c-.0451-1.3411-.7213-2.254-2.1075-2.254-3.3472 0-6.9085 6.5592-7.5171 9.1964 5.4885.0112 9.7598-3.257 9.6246-6.9424zm.7213 10.2783l.6423.4395c-1.6341 3.3247-4.9588 5.9956-8.8582 5.9956-3.1894 0-5.8153-2.13-5.9505-6.1196-.2592-7.1564 6.4464-13.7944 11.9349-13.7944 2.3554 0 4.5418 1.0255 4.632 3.5613.2028 5.6913-7.7876 7.4269-13.0507 7.5509-.169.5973-.2367 1.1946-.2029 2.0962.0902 2.3554 1.5102 4.339 4.463 4.339 2.547 0 5.094-2.0512 6.39-4.0685z"/><path d="M164.8692 42.2068c.5635-.0789 1.4763-.1803 1.8708-.1803.5973 0 1.1608.1127 1.1946.71.0113.3494-.6198 2.8851-.755 3.4712L165.906 51.82c-.5184 2.2991-1.0706 4.6996-1.5665 6.6042h3.2683l1.837-8.892c5.6012-5.8378 7.765-7.7425 9.0836-7.7425.5973 0 1.003.3156 1.0369 1.0256.0338 1.0256-.6086 3.3585-.8228 4.0347l-1.8708 6.4802c-.4282 1.4538-.7438 2.7724-.71 3.7078.0564 1.42.9129 2.0512 2.1977 2.0512 2.3892 0 4.1248-2.4907 5.635-4.9363l-.4396-.8002c-.6085.9805-2.0286 3.1331-3.1443 3.1331-.3494 0-.6875-.2367-.6987-.8227-.0338-.7551.2817-1.8934.5071-2.6485l2.085-7.596c.5635-2.0962.8227-3.4373.8114-4.1586-.0563-1.42-.879-2.085-2.1526-2.085-2.1525 0-5.0038 1.5779-11.0558 8.5315h-.0902l.7664-3.3923c.417-1.8595.8227-3.798 1.2059-5.1391-2.0963.755-5.094 1.6003-6.9424 1.961z"/></g></svg>