<svg height="1em" style="flex:none;line-height:1" viewBox="0 0 24 24" width="1em" xmlns="http://www.w3.org/2000/svg"><title>NanoBanana</title><path d="M1.5 19.824c0-.548.444-.992.991-.992h.744a.991.991 0 010 1.983H2.49a.991.991 0 01-.991-.991z" fill="#F3AD61"></path><path d="M14.837 13.5h7.076c.522 0 .784-.657.413-1.044l-1.634-1.704a3.183 3.183 0 00-4.636 0l-1.633 1.704c-.37.385-.107 1.044.414 1.044zM3.587 13.5h7.076c.521 0 .784-.659.414-1.044l-1.635-1.704a3.183 3.183 0 00-4.636 0l-1.633 1.704c-.37.385-.107 1.044.414 1.044z" fill="#F9C23C"></path><path d="M12.525 1.521c3.69-.53 5.97 8.923 4.309 12.744-1.662 3.82-5.248 4.657-9.053 6.152a3.49 3.49 0 01-1.279.244c-1.443 0-2.227 1.187-2.774-.282-.707-1.9.22-4.031 2.069-4.757 2.014-.79 3.084-2.308 3.89-4.364.82-2.096.877-2.956.873-5.241-.003-1.827-.123-4.195 1.965-4.496z" fill="#FEEFC2"></path><path d="M16.834 14.264l-7.095-3.257c-.815 1.873-2.29 3.308-4.156 4.043-2.16.848-3.605 3.171-2.422 5.54 2.364 4.727 13.673-.05 13.673-6.325z" fill="#FCD53F"></path><path clip-rule="evenodd" d="M13.68 12.362c.296.094.46.41.365.707-1.486 4.65-5.818 6.798-9.689 6.997a.562.562 0 11-.057-1.124c3.553-.182 7.372-2.138 8.674-6.216a.562.562 0 01.707-.364z" fill="#F9C23C" fill-rule="evenodd"></path><path d="M17.43 19.85l-7.648-8.835h6.753c1.595.08 2.846 1.433 2.846 3.073v5.664c0 .997-.898 1.302-1.95.098z" fill="#FFF478"></path></svg>